<svg width="60" height="60" viewBox="0 0 60 60" fill="none" xmlns="http://www.w3.org/2000/svg">
<path d="M400 66.6641V599.997M400 599.997V733.331M400 599.997L500 699.997M400 599.997L300 699.997M500 99.9974L400 199.997L300 99.9974" stroke="#1C274C" stroke-width="50" stroke-linecap="round"/>
<path d="M111.335 233.35L226.805 300.017M226.805 300.017L573.214 500.016M226.805 300.017L190.202 163.414M226.805 300.017L90.2021 336.619M573.214 500.016L688.684 566.683M573.214 500.016L709.817 463.413M573.214 500.016L609.817 636.619" stroke="#1C274C" stroke-width="50" stroke-linecap="round"/>
<path d="M688.667 233.35L573.197 300.017M573.197 300.017L226.788 500.016M573.197 300.017L609.8 163.414M573.197 300.017L709.8 336.619M226.788 500.016L111.318 566.683M226.788 500.016L90.1855 463.413M226.788 500.016L190.186 636.619" stroke="#1C274C" stroke-width="50" stroke-linecap="round"/>
</svg>
